<?xml version="1.0" encoding="UTF-8"?>
<svg width="175px" height="32px" viewBox="0 0 175 32" version="1.1" xmlns="http://www.w3.org/2000/svg" xmlns:xlink="http://www.w3.org/1999/xlink">
    <!-- Generator: Sketch 54.1 (76490) - https://sketchapp.com -->
    <title>Group 11</title>
    <desc>Created with Sketch.</desc>
    <defs>
        <linearGradient x1="121.870767%" y1="50.0000623%" x2="-8.13548721%" y2="50.0000623%" id="linearGradient-1">
            <stop stop-color="#47B4E0" offset="0%"></stop>
            <stop stop-color="#1588E0" offset="17.18%"></stop>
            <stop stop-color="#6EB4E0" offset="100%"></stop>
        </linearGradient>
        <linearGradient x1="49.9981983%" y1="99.9981453%" x2="49.9981983%" y2="0.00156952896%" id="linearGradient-2">
            <stop stop-color="#F0776F" offset="3.22%"></stop>
            <stop stop-color="#F0656F" offset="50.32%"></stop>
            <stop stop-color="#F0606F" offset="100%"></stop>
        </linearGradient>
        <linearGradient x1="49.9999999%" y1="0.000675229319%" x2="49.9999999%" y2="99.9996626%" id="linearGradient-3">
            <stop stop-color="#F0776F" offset="3.22%"></stop>
            <stop stop-color="#F0656F" offset="50.32%"></stop>
            <stop stop-color="#F0606F" offset="100%"></stop>
        </linearGradient>
    </defs>
    <g id="Templates-模板页面" stroke="none" stroke-width="1" fill="none" fill-rule="evenodd">
        <g id="监控页" transform="translate(-24.000000, -17.000000)">
            <g id="Group-11" transform="translate(24.000000, 17.000000)">
                <g id="Group-5" fill-rule="nonzero">
                    <g id="T1B9hfXcdvXXXXXXXX">
                        <g id="Group">
                            <path d="M16.9951372,0.635294118 L23.0999216,6.74007844 C23.6730981,7.3132549 23.6730981,8.24219607 23.0999216,8.81505882 L23.0999216,8.81505882 C22.5267451,9.3882353 21.5978039,9.3882353 21.0249412,8.81505882 L16.9951372,4.78556863 C16.4219607,4.21239216 15.4930196,4.21239216 14.9201569,4.78556863 L4.78556863,14.9201569 C4.21239216,15.4933333 4.21239216,16.4222745 4.78556863,16.9951372 L14.9201569,27.1297255 C15.4933333,27.7029019 16.4222745,27.7029019 16.9951372,27.1297255 L21.0249412,23.0999216 C21.5981177,22.5267451 22.5270588,22.5267451 23.0999216,23.0999216 L23.0999216,23.0999216 C23.6730981,23.6730981 23.6730981,24.6020393 23.0999216,25.1749019 L16.9951372,31.2796863 C16.4219607,31.8528628 15.4930196,31.8528628 14.9201569,31.2796863 L0.635294118,16.9951372 C0.062117647,16.4219607 0.062117647,15.4930196 0.635294118,14.9201569 L14.9198431,0.635607844 C15.4930196,0.0624313726 16.4222745,0.0624313726 16.9951372,0.635294118 Z" id="Shape" fill="url(#linearGradient-1)"></path>
                            <path d="M25.1752156,10.8903529 L25.1752156,10.8903529 C25.7483921,10.3171765 26.6773333,10.3171765 27.2501961,10.8903529 L31.28,14.9201569 C31.8531765,15.4933333 31.8531765,16.4222745 31.28,16.9951372 L27.2501961,21.0249412 C26.6770196,21.5981177 25.7480784,21.5981177 25.1752156,21.0249412 L25.1752156,21.0249412 C24.6020393,20.4517647 24.6020393,19.5228235 25.1752156,18.9499607 L27.1297255,16.995451 C27.7029019,16.4222745 27.7029019,15.4933333 27.1297255,14.9204706 L25.1752156,12.9659607 C24.6020393,12.3924706 24.6020393,11.4635294 25.1752156,10.8903529 Z" id="Shape" fill="url(#linearGradient-2)"></path>
                        </g>
                        <path d="M15.957647,20.6048628 C18.5242353,20.6048628 20.6048628,18.5242353 20.6048628,15.957647 C20.6048628,13.3910588 18.5242353,11.3104314 15.957647,11.3104314 C13.3910588,11.3104314 11.3104314,13.3910588 11.3104314,15.957647 C11.3104314,18.5242353 13.3910588,20.6048628 15.957647,20.6048628 Z M15.957647,18.3730196 C14.6236863,18.3730196 13.5422745,17.2916079 13.5422745,15.957647 C13.5422745,14.6236863 14.6236863,13.5422745 15.957647,13.5422745 C17.2916079,13.5422745 18.3730196,14.6236863 18.3730196,15.957647 C18.3730196,17.2916079 17.2916079,18.3730196 15.957647,18.3730196 Z" id="Shape" fill="url(#linearGradient-3)"></path>
                    </g>
                </g>
                <path d="M53.8100713,22.164557 L52.7694659,18.8417722 L47.9732208,18.8417722 L46.9326153,22.164557 L44,22.164557 L48.7394848,8.46518987 L52.0978024,8.46518987 L56.8467472,22.164557 L53.8100713,22.164557 Z M50.3382332,11.085443 L48.588124,16.6962025 L52.1545627,16.6962025 L50.4044535,11.085443 L50.3382332,11.085443 Z M58.0008732,22.164557 L60.7632077,22.164557 L60.7632077,16.3734177 C60.7632077,15.0443038 61.5294717,14.1329114 62.7781982,14.1329114 C64.0363848,14.1329114 64.651288,14.8924051 64.651288,16.221519 L64.651288,22.164557 L67.4136225,22.164557 L67.4136225,15.6424051 C67.4136225,13.2594937 66.1459758,11.835443 63.8944841,11.835443 C62.3335759,11.835443 61.3024305,12.5189873 60.7253675,13.8196203 L60.6686072,13.8196203 L60.6686072,11.9873418 L58.0008732,11.9873418 L58.0008732,22.164557 Z M69.9016155,9.64240506 L69.9016155,11.9873418 L68.473148,11.9873418 L68.473148,14.0759494 L69.9016155,14.0759494 L69.9016155,19.4113924 C69.9016155,21.3955696 70.8287003,22.2025316 73.2126328,22.2025316 C73.7707757,22.2025316 74.2437782,22.1455696 74.5275797,22.0886076 L74.5275797,20.0474684 C74.3572988,20.0759494 74.1018775,20.0949367 73.8559162,20.0949367 C73.0423519,20.0949367 72.6639499,19.7151899 72.6639499,18.9367089 L72.6639499,14.0759494 L74.5370397,14.0759494 L74.5370397,11.9873418 L72.6639499,11.9873418 L72.6639499,9.64240506 L69.9016155,9.64240506 Z M80.1184689,8.46518987 L85.3309562,8.46518987 C89.4271576,8.46518987 91.8394702,10.914557 91.8394702,15.2626582 C91.8394702,19.6107595 89.4271576,22.164557 85.3309562,22.164557 L80.1184689,22.164557 L80.1184689,8.46518987 Z M82.9754039,10.8291139 L82.9754039,19.7911392 L84.9903944,19.7911392 C87.5446078,19.7911392 88.925775,18.2341772 88.925775,15.2721519 C88.925775,12.4050633 87.5067676,10.8291139 84.9903944,10.8291139 L82.9754039,10.8291139 Z M97.9885024,13.8575949 C96.7870761,13.8575949 95.9072915,14.7405063 95.812691,16.0126582 L100.117014,16.0126582 C100.060253,14.7120253 99.2088488,13.8575949 97.9885024,13.8575949 Z M100.154854,19.0506329 L102.690147,19.0506329 C102.387425,21.0348101 100.552176,22.3449367 98.0641828,22.3449367 C94.9612866,22.3449367 93.0692767,20.3607595 93.0692767,17.1234177 C93.0692767,13.8765823 94.9707466,11.806962 97.9601223,11.806962 C100.902198,11.806962 102.775287,13.7721519 102.775287,16.8670886 L102.775287,17.7120253 L95.7843109,17.7120253 L95.7843109,17.8829114 C95.7843109,19.3164557 96.7208558,20.2943038 98.111483,20.2943038 C99.1047882,20.2943038 99.8994324,19.8196203 100.154854,19.0506329 Z M104.024014,14.9968354 C104.024014,16.4873418 105.007859,17.4841772 106.928249,17.9208861 L108.801339,18.3386076 C109.709504,18.556962 110.050065,18.8322785 110.050065,19.335443 C110.050065,19.9905063 109.406782,20.3987342 108.366177,20.3987342 C107.268811,20.3987342 106.587687,19.914557 106.464707,19.0696203 L103.768593,19.0696203 C103.910493,21.0443038 105.584922,22.3449367 108.290496,22.3449367 C110.96769,22.3449367 112.80294,21.0348101 112.80294,19.0411392 C112.80294,17.5316456 111.979916,16.7341772 109.946005,16.278481 L108.006695,15.8607595 C107.11745,15.6518987 106.682288,15.3196203 106.682288,14.8259494 C106.682288,14.1803797 107.316111,13.7531646 108.262116,13.7531646 C109.283801,13.7531646 109.946005,14.2563291 109.993305,15.0537975 L112.538059,15.0537975 C112.509678,13.0886076 110.83525,11.806962 108.299956,11.806962 C105.698443,11.806962 104.024014,13.0696203 104.024014,14.9968354 Z M114.221947,22.164557 L116.984282,22.164557 L116.984282,11.9873418 L114.221947,11.9873418 L114.221947,22.164557 Z M115.603115,10.8670886 C116.416679,10.8670886 117.078882,10.2405063 117.078882,9.4335443 C117.078882,8.60759494 116.416679,8 115.603115,8 C114.78955,8 114.127347,8.60759494 114.127347,9.4335443 C114.127347,10.2405063 114.78955,10.8670886 115.603115,10.8670886 Z M123.502256,19.9620253 C124.883423,19.9620253 125.763208,18.8607595 125.763208,17.056962 C125.763208,15.2626582 124.883423,14.0949367 123.502256,14.0949367 C122.140009,14.0949367 121.279144,15.2436709 121.279144,17.056962 C121.279144,18.8797468 122.130549,19.9620253 123.502256,19.9620253 Z M123.454956,26 C120.787222,26 118.980352,24.6993671 118.762771,22.8860759 L121.468345,22.8860759 C121.685926,23.5886076 122.480571,24.0727848 123.530636,24.0727848 C124.959103,24.0727848 125.753748,23.2753165 125.753748,22.0981013 L125.753748,20.3132911 L125.696987,20.3132911 C125.223985,21.3955696 124.032019,22.0981013 122.565711,22.0981013 C120.096638,22.0981013 118.450589,20.1803797 118.450589,17.0379747 C118.450589,13.8481013 120.049338,11.8639241 122.613011,11.8639241 C124.069859,11.8639241 125.214525,12.6044304 125.744288,13.7341772 L125.791588,13.7341772 L125.791588,11.9873418 L128.516082,11.9873418 L128.516082,22.0221519 C128.516082,24.4525316 126.491631,26 123.454956,26 Z M130.313491,22.164557 L133.075826,22.164557 L133.075826,16.3734177 C133.075826,15.0443038 133.84209,14.1329114 135.090816,14.1329114 C136.349003,14.1329114 136.963906,14.8924051 136.963906,16.221519 L136.963906,22.164557 L139.726241,22.164557 L139.726241,15.6424051 C139.726241,13.2594937 138.458594,11.835443 136.207102,11.835443 C134.646194,11.835443 133.615049,12.5189873 133.037986,13.8196203 L132.981225,13.8196203 L132.981225,11.9873418 L130.313491,11.9873418 L130.313491,22.164557 Z M145.544171,8.46518987 L151.09722,8.46518987 C153.897395,8.46518987 155.827245,10.335443 155.827245,13.1550633 C155.827245,15.9651899 153.831175,17.8449367 150.955319,17.8449367 L148.401106,17.8449367 L148.401106,22.164557 L145.544171,22.164557 L145.544171,8.46518987 Z M148.401106,10.7341772 L148.401106,15.6044304 L150.330956,15.6044304 C151.967545,15.6044304 152.92301,14.7310127 152.92301,13.164557 C152.92301,11.6075949 151.977005,10.7341772 150.340416,10.7341772 L148.401106,10.7341772 Z M157.274633,22.164557 L160.036967,22.164557 L160.036967,16.5158228 C160.036967,15.0822785 160.831611,14.2468354 162.193858,14.2468354 C162.59118,14.2468354 162.969582,14.3132911 163.196623,14.4082278 L163.196623,11.9683544 C162.997962,11.9018987 162.733081,11.8639241 162.411439,11.8639241 C161.219473,11.8639241 160.349149,12.556962 159.999127,13.8196203 L159.942366,13.8196203 L159.942366,11.9873418 L157.274633,11.9873418 L157.274633,22.164557 Z M168.976714,22.3449367 C165.883278,22.3449367 163.953427,20.3702532 163.953427,17.0664557 C163.953427,13.8101266 165.911658,11.806962 168.976714,11.806962 C172.04177,11.806962 174,13.8006329 174,17.0664557 C174,20.3797468 172.07015,22.3449367 168.976714,22.3449367 Z M168.976714,20.2278481 C170.357881,20.2278481 171.190365,19.0791139 171.190365,17.0759494 C171.190365,15.0917722 170.357881,13.9240506 168.976714,13.9240506 C167.595546,13.9240506 166.753602,15.1012658 166.753602,17.0759494 C166.753602,19.0791139 167.586086,20.2278481 168.976714,20.2278481 Z" id="Ant-Design-Pro" stroke="#002140" stroke-width="0.3" fill="#FFFFFF"></path>
            </g>
        </g>
    </g>
</svg>